<svg xmlns="http://www.w3.org/2000/svg" version="1.1" xmlns:xlink="http://www.w3.org/1999/xlink" xmlns:svgjs="http://svgjs.dev/svgjs" width="1000" height="1125" viewBox="0 0 1000 1125"><g transform="matrix(1,0,0,1,0,0)"><svg viewBox="0 0 320 360" data-background-color="#0a1627" preserveAspectRatio="xMidYMid meet" height="1125" width="1000" xmlns="http://www.w3.org/2000/svg" xmlns:xlink="http://www.w3.org/1999/xlink"><g id="tight-bounds" transform="matrix(1,0,0,1,0,0)"><svg viewBox="0 0 320 360" height="360" width="320"><g><svg></svg></g><g><svg viewBox="0 0 320 360" height="360" width="320"><g><path xmlns="http://www.w3.org/2000/svg" d="M297.491 100.645c-12.426-21.51-112.674-79.355-137.491-79.355-24.817 0-125.028 57.845-137.491 79.355-11.591 20.02-11.591 138.726 0 158.746 12.463 21.474 112.674 79.319 137.491 79.319 24.817 0 125.064-57.845 137.491-79.355 11.591-20.02 11.591-138.69 0-158.71zM309.481 93.705c-14.461-24.998-119.469-86.295-149.481-86.295-30.012 0-135.02 61.297-149.481 86.295-14.025 24.199-14.025 148.391 0 172.59 14.461 24.998 119.469 86.295 149.481 86.295 30.012 0 135.02-61.297 149.481-86.259 14.025-24.235 14.025-148.427 0-172.626zM300.906 261.353c-12.753 22.055-115.472 81.317-140.906 81.318-25.434 0-128.153-59.298-140.906-81.354-11.881-20.529-11.881-142.178 0-162.707 12.753-22.019 115.472-81.281 140.906-81.281 25.434 0 128.153 59.298 140.906 81.318 11.881 20.529 11.881 142.178 0 162.706z" fill="#fe0039" fill-rule="nonzero" stroke="none" stroke-width="1" stroke-linecap="butt" stroke-linejoin="miter" stroke-miterlimit="10" stroke-dasharray="" stroke-dashoffset="0" font-family="none" font-weight="none" font-size="none" text-anchor="none" style="mix-blend-mode: normal" data-fill-palette-color="tertiary"></path></g><g transform="matrix(1,0,0,1,83.12280625534936,90)"><svg viewBox="0 0 153.75438748930128 180" height="180" width="153.75438748930128"><g><svg viewBox="0 0 153.75438748930128 180" height="180" width="153.75438748930128"><g><svg viewBox="0 0 205.5958453276047 240.69070654353803" height="180" width="153.75438748930128"><g><svg viewBox="0 0 205.5958453276047 240.69070654353803" height="240.69070654353803" width="205.5958453276047"><g id="textblocktransform"><svg viewBox="0 0 205.5958453276047 240.69070654353803" height="240.69070654353803" width="205.5958453276047" id="textblock"><g><svg viewBox="0 0 205.5958453276047 178.88760000000002" height="178.88760000000002" width="205.5958453276047"><g transform="matrix(1,0,0,1,0,0)"><svg width="205.5958453276047" viewBox="0.5 -34.099998474121094 53.5 46.54999923706055" height="178.88760000000002" data-palette-color="#0a1627"><path d="M19.4-34.1L19.4-34.1 30.5-9.75Q31.7-7.2 32.4-5.93 33.1-4.65 33.68-4.25 34.25-3.85 34.95-3.75L34.95-3.75Q35.15-3.1 35.25-2.08 35.35-1.05 35.35 0.15L35.35 0.15Q34.35 0.05 32.8 0.03 31.25 0 29.78 0 28.3 0 27.5 0L27.5 0Q26.9 0 25.73 0 24.55 0 23.2 0.03 21.85 0.05 20.63 0.08 19.4 0.1 18.7 0.15L18.7 0.15Q18.7-1.25 18.8-2.13 18.9-3 19.1-3.75L19.1-3.75Q20.75-4.15 21.08-5 21.4-5.85 20.65-7.55L20.65-7.55 17-15.8Q15.65-18.8 14.85-21.45 14.05-24.1 13.65-26.4L13.65-26.4 15.5-26.4Q14.9-24.05 14.08-21.4 13.25-18.75 12.05-15.8L12.05-15.8 8.85-7.6Q8.4-6.5 8.78-5.25 9.15-4 10.75-3.75L10.75-3.75Q10.95-2.95 11.05-2 11.15-1.05 11.15 0.15L11.15 0.15Q10.6 0.1 9.53 0.08 8.45 0.05 7.3 0.03 6.15 0 5.3 0L5.3 0Q4.05 0 2.65 0.03 1.25 0.05 0.5 0.15L0.5 0.15Q0.5-1 0.6-1.9 0.7-2.8 1-3.75L1-3.75Q1.8-3.9 2.4-4.35 3-4.8 3.6-5.85 4.2-6.9 5-8.8L5-8.8 15.6-33.8Q16.6-34.05 17.43-34.08 18.25-34.1 19.4-34.1ZM8.05-11.55L20.3-11.55 21.35-8.3Q18-8.3 14.45-8.18 10.9-8.05 7.3-7.65L7.3-7.65 8.05-11.55ZM50.3-24.4L50.3-6.75Q50.3-3.3 49.77-0.43 49.25 2.45 47.85 4.78 46.45 7.1 43.82 9 41.2 10.9 36.95 12.45L36.95 12.45Q36.05 11.75 35.62 10.8 35.2 9.85 35.1 8.75L35.1 8.75Q36.95 7.5 38.07 6.1 39.2 4.7 39.75 2.55 40.3 0.4 40.3-3.1L40.3-3.1 40.3-24.4Q40.3-26.75 40.05-27.9 39.8-29.05 39.12-29.48 38.45-29.9 37.05-30.05L37.05-30.05Q36.85-30.8 36.72-31.93 36.6-33.05 36.6-33.95L36.6-33.95Q37.65-33.9 39.17-33.85 40.7-33.8 42.32-33.8 43.95-33.8 45.3-33.8L45.3-33.8Q47.35-33.8 49.82-33.83 52.3-33.85 54-33.95L54-33.95Q54-32.8 53.9-31.85 53.8-30.9 53.55-30.05L53.55-30.05Q52.05-29.95 51.35-29.4 50.65-28.85 50.47-27.68 50.3-26.5 50.3-24.4L50.3-24.4Z" opacity="1" transform="matrix(1,0,0,1,0,0)" fill="#0a1627" class="undefined-text-0" data-fill-palette-color="quaternary" id="text-0"></path></svg></g></svg></g><g transform="matrix(1,0,0,1,0,221.11866905760002)"><svg viewBox="0 0 205.5958453276047 19.572037485938004" height="19.572037485938004" width="205.5958453276047"><g transform="matrix(1,0,0,1,0,0)"><svg width="205.5958453276047" viewBox="-0.7300000190734863 -38.33000183105469 561.0599975585938 53.42000198364258" height="19.572037485938004" data-palette-color="#0a1627"><path d="M18.36-33.15L18.36-33.15Q18.36-32.23 17.94-31.49 17.53-30.76 16.85-30.25 16.16-29.74 15.33-29.39 14.5-29.05 13.72-28.91L13.72-28.91Q13.62-23.39 13.31-18.26 12.99-13.13 12.3-7.67L12.3-7.67 12.6-7.67Q13.38-7.67 14.14-7.5 14.89-7.32 15.5-6.91 16.11-6.49 16.48-5.88 16.85-5.27 16.85-4.39L16.85-4.39Q16.85-3.27 16.14-2.44 15.43-1.61 14.28-1.03 13.13-0.44 11.72-0.05 10.3 0.34 8.89 0.56 7.47 0.78 6.2 0.88 4.93 0.98 4.15 0.98L4.15 0.98Q3.56 0.98 2.71 0.93 1.86 0.88 1.1 0.63 0.34 0.39-0.2-0.1-0.73-0.59-0.73-1.42L-0.73-1.42Q-0.73-2.44-0.32-3.25 0.1-4.05 0.78-4.69 1.46-5.32 2.32-5.71 3.17-6.1 4.05-6.3L4.05-6.3Q4.39-8.98 4.69-11.65 4.98-14.31 5.08-17.04L5.08-17.04Q5.18-19.82 5.27-22.53 5.37-25.24 5.47-27.98L5.47-27.98Q5.13-27.93 4.83-27.91 4.54-27.88 4.3-27.88L4.3-27.88Q3.61-27.88 2.83-28.03 2.05-28.17 1.37-28.54 0.68-28.91 0.22-29.44-0.24-29.98-0.24-30.81L-0.24-30.81Q-0.24-32.47 1.15-33.54 2.54-34.62 4.47-35.21 6.4-35.79 8.4-36.01 10.4-36.23 11.62-36.23L11.62-36.23Q12.3-36.23 13.43-36.13 14.55-36.04 15.65-35.69 16.75-35.35 17.55-34.77 18.36-34.18 18.36-33.15ZM54.1-6.74L54.1-6.74Q54.1-5.52 53.1-4.44 52.09-3.37 50.51-2.49 48.92-1.61 46.97-0.95 45.01-0.29 43.11 0.17 41.21 0.63 39.52 0.88 37.84 1.12 36.86 1.12L36.86 1.12Q35.93 1.12 34.88 0.95 33.83 0.78 33.15 0.2L33.15 0.2Q32.76-0.1 32.47-1.12 32.17-2.15 31.9-3.56 31.64-4.98 31.44-6.62 31.24-8.25 31.12-9.81 31-11.38 30.93-12.7 30.85-14.01 30.85-14.75L30.85-14.75Q30.85-15.97 30.93-17.7 31-19.43 31.15-21.41 31.29-23.39 31.54-25.44 31.78-27.49 32.1-29.32 32.42-31.15 32.88-32.62 33.34-34.08 33.88-34.91L33.88-34.91Q34.81-36.23 36.23-36.23L36.23-36.23Q37.2-36.23 37.89-35.57 38.57-34.91 38.98-33.86 39.4-32.81 39.62-31.52 39.84-30.22 39.94-28.96 40.03-27.69 40.03-26.61 40.03-25.54 40.03-24.9L40.03-24.9Q40.03-21.09 39.86-17.36 39.69-13.62 39.69-9.81L39.69-9.81 39.69-7.91Q41.89-8.59 44.48-9.2 47.07-9.81 49.41-9.81L49.41-9.81Q50.24-9.81 51.09-9.72 51.95-9.62 52.61-9.3 53.27-8.98 53.68-8.37 54.1-7.76 54.1-6.74ZM64.59 1.42L64.59 1.42Q62.1 1.42 60.25 0.1 58.39-1.22 57.12-3.27 55.85-5.32 55.22-7.84 54.58-10.35 54.58-12.79L54.58-12.79Q54.58-15.38 55.22-18.14 55.85-20.9 57.17-23.17 58.49-25.44 60.54-26.88 62.59-28.32 65.42-28.32L65.42-28.32Q68.16-28.32 70.09-26.83 72.01-25.34 73.19-23.12 74.36-20.9 74.85-18.26 75.33-15.63 75.19-13.28L75.19-13.28Q75.04-10.69 74.38-8.06 73.72-5.42 72.45-3.32 71.18-1.22 69.23 0.1 67.28 1.42 64.59 1.42ZM65.08-20.65L65.08-20.65Q64.35-20.65 63.79-19.87 63.22-19.09 62.86-17.97 62.49-16.85 62.3-15.6 62.1-14.36 62.1-13.43L62.1-13.43Q62.1-12.26 62.32-10.89 62.54-9.52 62.93-8.37 63.32-7.23 63.88-6.47 64.45-5.71 65.18-5.71L65.18-5.71Q65.96-5.71 66.52-6.45 67.08-7.18 67.42-8.3 67.77-9.42 67.91-10.77 68.06-12.11 68.06-13.28L68.06-13.28Q68.06-14.36 67.86-15.65 67.67-16.94 67.3-18.07 66.94-19.19 66.37-19.92 65.81-20.65 65.08-20.65ZM91.98-26.86L91.98-26.86Q91.98-25.44 91.03-24.76 90.08-24.07 88.91-23.46 87.73-22.85 86.78-22.02 85.83-21.19 85.83-19.53L85.83-19.53Q85.83-18.65 86.24-18.02 86.66-17.38 87.27-16.87 87.88-16.36 88.61-15.82 89.35-15.28 89.96-14.6 90.57-13.92 90.98-12.94 91.4-11.96 91.4-10.55L91.4-10.55Q91.4-8.5 90.35-6.52 89.3-4.54 87.66-3 86.03-1.46 83.97-0.54 81.92 0.39 79.92 0.39L79.92 0.39Q79.09 0.39 78.26 0.27 77.43 0.15 76.77-0.2 76.11-0.54 75.67-1.15 75.23-1.76 75.23-2.73L75.23-2.73Q75.23-4.1 75.77-4.86 76.31-5.62 77.14-6.05 77.97-6.49 78.92-6.74 79.87-6.98 80.7-7.35 81.53-7.71 82.07-8.3 82.61-8.89 82.61-9.96L82.61-9.96Q82.61-10.99 81.8-12.08 81-13.18 80.02-14.43 79.04-15.67 78.24-17.09 77.43-18.51 77.43-20.21L77.43-20.21Q77.43-22.31 78.29-24.1 79.14-25.88 80.58-27.2 82.02-28.52 83.88-29.27 85.73-30.03 87.78-30.03L87.78-30.03Q88.56-30.03 89.32-29.88 90.08-29.74 90.66-29.37 91.25-29 91.62-28.39 91.98-27.78 91.98-26.86ZM105.31 1.76L105.31 1.76Q101.84 1.76 99.91 0.85 97.99-0.05 97.03-1.71 96.08-3.37 95.89-5.71 95.69-8.06 95.69-10.94L95.69-10.94Q95.69-13.23 95.84-15.55 95.98-17.87 96.28-20.51L96.28-20.51Q95.59-20.51 95.2-20.48 94.81-20.46 94.57-20.46L94.57-20.46Q93.01-20.46 91.86-21.14 90.71-21.83 90.71-23.24L90.71-23.24Q90.71-24.12 91.37-24.8 92.03-25.49 93.05-25.98 94.08-26.46 95.28-26.76 96.47-27.05 97.55-27.15L97.55-27.15Q97.55-28.52 97.74-30.18 97.94-31.84 98.45-33.28 98.96-34.72 99.84-35.69 100.72-36.67 102.09-36.67L102.09-36.67Q102.87-36.67 103.48-36.21 104.09-35.74 104.48-35.03 104.87-34.33 105.07-33.45 105.26-32.57 105.26-31.74L105.26-31.74Q105.26-30.76 105.11-29.74 104.97-28.71 104.58-27.2L104.58-27.2Q105.41-27.29 105.7-27.32 105.99-27.34 106.24-27.34L106.24-27.34Q107.07-27.34 107.97-27.2 108.87-27.05 109.63-26.71 110.39-26.37 110.88-25.81 111.36-25.24 111.36-24.46L111.36-24.46Q111.36-23.58 110.66-22.9 109.95-22.22 108.87-21.73 107.8-21.24 106.58-20.97 105.36-20.7 104.28-20.61L104.28-20.61Q103.99-18.6 103.87-16.92 103.75-15.23 103.6-13.53L103.6-13.53Q103.5-12.7 103.43-11.84 103.36-10.99 103.36-10.11L103.36-10.11Q103.36-9.47 103.41-8.62 103.45-7.76 103.75-6.98 104.04-6.2 104.68-5.64 105.31-5.08 106.43-5.08L106.43-5.08Q107.12-5.08 107.85-5.2 108.58-5.32 109.31-5.32L109.31-5.32Q110.58-5.32 111.14-4.44 111.71-3.56 111.71-2.2L111.71-2.2Q111.71-1.17 111.1-0.42 110.49 0.34 109.56 0.81 108.63 1.27 107.48 1.51 106.34 1.76 105.31 1.76ZM154.47-28.66L154.47-28.66Q154.47-25.73 154.08-22.88 153.69-20.02 153.16-17.24L153.16-17.24Q153.01-16.5 152.72-14.87 152.42-13.23 152.01-11.23 151.59-9.23 151.01-7.08 150.42-4.93 149.71-3.17 149.01-1.42 148.15-0.27 147.3 0.88 146.32 0.88L146.32 0.88Q145.34 0.88 144.44-0.1 143.54-1.07 142.78-2.56 142.02-4.05 141.39-5.91 140.75-7.76 140.29-9.5 139.83-11.23 139.51-12.67 139.19-14.11 139.05-14.84L139.05-14.84Q138.85-14.21 138.43-12.82 138.02-11.43 137.38-9.69 136.75-7.96 135.97-6.15 135.19-4.35 134.33-2.83 133.48-1.32 132.55-0.34 131.62 0.63 130.7 0.63L130.7 0.63Q129.47 0.63 128.55-0.44 127.62-1.51 126.98-3.2 126.35-4.88 125.91-6.96 125.47-9.03 125.23-11.06 124.98-13.09 124.84-14.84 124.69-16.6 124.64-17.63L124.64-17.63Q124.49-19.97 124.37-22.22 124.25-24.46 124.25-26.81L124.25-26.81Q124.25-27.64 124.3-29.08 124.35-30.52 124.67-31.91 124.98-33.3 125.64-34.35 126.3-35.4 127.57-35.5L127.57-35.5Q128.64-35.55 129.43-34.62 130.21-33.69 130.74-32.15 131.28-30.62 131.6-28.74 131.92-26.86 132.09-25.1 132.26-23.34 132.31-21.88 132.36-20.41 132.31-19.73L132.31-19.73 132.26-18.46Q132.4-19.09 132.77-20.46 133.14-21.83 133.67-23.56 134.21-25.29 134.82-27.12 135.43-28.96 136.12-30.47 136.8-31.98 137.48-32.98 138.17-33.98 138.8-34.03L138.8-34.03Q139.63-34.08 140.39-33.06 141.14-32.03 141.75-30.4 142.37-28.76 142.85-26.76 143.34-24.76 143.71-22.88 144.07-21 144.27-19.48 144.46-17.97 144.56-17.33L144.56-17.33Q144.61-18.12 144.81-19.8 145-21.48 145.34-23.56 145.69-25.63 146.2-27.81 146.71-29.98 147.39-31.79 148.08-33.59 148.96-34.74 149.84-35.89 150.91-35.89L150.91-35.89Q152.13-35.89 152.86-35.08 153.6-34.28 153.94-33.13 154.28-31.98 154.38-30.74 154.47-29.49 154.47-28.66ZM176.88-8.69L176.88-8.69Q176.88-7.03 175.83-5.44 174.78-3.86 173.2-2.61 171.61-1.37 169.8-0.61 168 0.15 166.48 0.15L166.48 0.15Q163.9 0.15 161.87-1.15 159.84-2.44 158.48-4.44 157.11-6.45 156.4-8.86 155.69-11.28 155.69-13.57L155.69-13.57Q155.69-16.02 156.38-18.8 157.06-21.58 158.45-23.93 159.84-26.27 161.97-27.83 164.09-29.39 167.02-29.39L167.02-29.39Q168.68-29.39 170.19-28.83 171.71-28.27 172.83-27.25 173.95-26.22 174.64-24.8 175.32-23.39 175.32-21.63L175.32-21.63Q175.32-19.34 174.35-17.33 173.37-15.33 171.76-13.87 170.15-12.4 168.05-11.5 165.95-10.6 163.75-10.5L163.75-10.5Q163.94-9.08 164.9-8.45 165.85-7.81 167.17-7.81L167.17-7.81Q168.14-7.81 169.07-8.3 170-8.79 170.88-9.4 171.76-10.01 172.61-10.5 173.47-10.99 174.35-10.99L174.35-10.99Q175.32-10.99 176.1-10.35 176.88-9.72 176.88-8.69ZM168.97-20.65L168.97-20.65Q168.97-21.29 168.63-21.97 168.29-22.66 167.56-22.66L167.56-22.66Q166.48-22.66 165.75-22.09 165.02-21.53 164.53-20.68 164.04-19.82 163.77-18.85 163.51-17.87 163.46-17.04L163.46-17.04Q164.14-17.19 165.09-17.43 166.04-17.68 166.9-18.09 167.75-18.51 168.36-19.14 168.97-19.78 168.97-20.65ZM186.89-34.08L186.89-34.08Q186.89-33.4 186.53-32.86 186.16-32.32 185.57-31.91 184.99-31.49 184.3-31.27 183.62-31.05 183.03-31.05L183.03-31.05Q182.06-31.05 181.33-31.54 180.59-32.03 180.59-33.06L180.59-33.06Q180.59-33.79 180.96-34.35 181.33-34.91 181.86-35.28 182.4-35.64 183.08-35.84 183.77-36.04 184.4-36.04L184.4-36.04Q185.33-36.04 186.11-35.6 186.89-35.16 186.89-34.08ZM187.28-17.48L187.28-17.48Q187.28-16.8 187.28-16.04 187.28-15.28 187.23-14.6L187.23-14.6Q187.18-13.77 187.18-12.38 187.18-10.99 187.09-9.38 186.99-7.76 186.77-6.1 186.55-4.44 186.06-3.08 185.57-1.71 184.77-0.85 183.96 0 182.74 0.05L182.74 0.05Q181.81 0.1 181.18-0.68 180.54-1.46 180.13-2.71 179.71-3.96 179.52-5.49 179.32-7.03 179.23-8.47 179.13-9.91 179.13-11.13 179.13-12.35 179.13-12.94L179.13-12.94Q179.13-13.72 179.13-15.16 179.13-16.6 179.23-18.26 179.32-19.92 179.59-21.63 179.86-23.34 180.37-24.76 180.89-26.17 181.72-27.05 182.55-27.93 183.82-27.93L183.82-27.93Q185.13-27.93 185.82-26.61 186.5-25.29 186.84-23.54 187.18-21.78 187.23-20.04 187.28-18.31 187.28-17.48ZM212.87-16.65L212.87-16.65Q212.87-14.16 212.79-11.67 212.72-9.18 212.52-6.69L212.52-6.69Q212.38-4.54 212.13-2.1 211.89 0.34 211.35 2.76 210.81 5.18 209.94 7.4 209.06 9.62 207.62 11.33 206.18 13.04 204.13 14.06 202.07 15.09 199.24 15.09L199.24 15.09Q197.92 15.09 196.29 14.67 194.65 14.26 193.21 13.48 191.77 12.7 190.77 11.55 189.77 10.4 189.77 8.89L189.77 8.89Q189.77 7.76 190.58 6.81 191.38 5.86 192.65 5.86L192.65 5.86Q193.43 5.86 194.14 6.13 194.85 6.4 195.56 6.74 196.26 7.08 196.92 7.35 197.58 7.62 198.27 7.62L198.27 7.62Q200.07 7.62 201.29 6.71 202.51 5.81 203.25 4.42 203.98 3.03 204.35 1.39 204.71-0.24 204.86-1.71L204.86-1.71Q203.88-0.59 202.59-0.17 201.29 0.24 199.88 0.24L199.88 0.24Q197.29 0.24 195.48-0.66 193.68-1.56 192.55-3.15 191.43-4.74 190.89-6.84 190.36-8.94 190.36-11.38L190.36-11.38Q190.36-12.89 190.67-14.79 190.99-16.7 191.63-18.65 192.26-20.61 193.21-22.46 194.16-24.32 195.43-25.73 196.7-27.15 198.29-28.03 199.88-28.91 201.78-28.91L201.78-28.91Q203.64-28.91 205.08-27.83 206.52-26.76 206.76-24.8L206.76-24.8Q207.3-25.83 208.18-26.83 209.06-27.83 210.33-27.83L210.33-27.83Q211.01-27.83 211.47-27.15 211.94-26.46 212.21-25.37 212.48-24.27 212.62-22.97 212.77-21.68 212.82-20.43 212.87-19.19 212.87-18.16 212.87-17.14 212.87-16.65ZM205.44-13.48L205.44-13.48Q205.44-14.21 205.22-15.38 205-16.55 204.59-17.63 204.17-18.7 203.54-19.48 202.9-20.26 202.03-20.26L202.03-20.26Q200.9-20.26 200.05-19.48 199.19-18.7 198.61-17.6 198.02-16.5 197.7-15.26 197.39-14.01 197.39-13.13L197.39-13.13Q197.39-12.5 197.48-11.43 197.58-10.35 197.9-9.33 198.22-8.3 198.75-7.57 199.29-6.84 200.17-6.84L200.17-6.84Q201.49-6.84 202.47-7.47 203.44-8.11 204.1-9.08 204.76-10.06 205.1-11.23 205.44-12.4 205.44-13.48ZM238.5-12.65L238.5-12.65Q238.5-11.82 238.47-10.18 238.45-8.54 238.33-6.76 238.2-4.98 238.01-3.39 237.81-1.81 237.52-1.07L237.52-1.07Q237.13-0.15 236.5 0.54 235.86 1.22 234.79 1.22L234.79 1.22Q233.13 1.22 232.39-0.1 231.66-1.42 231.42-3.37 231.17-5.32 231.22-7.62 231.27-9.91 231.17-11.87 231.08-13.82 230.64-15.14 230.2-16.46 229.03-16.46L229.03-16.46Q227.41-16.46 226.56-15.94 225.7-15.43 225.34-14.6 224.97-13.77 224.9-12.7 224.83-11.62 224.73-10.45L224.73-10.45Q224.63-9.33 224.58-7.42 224.53-5.52 224.14-3.66 223.75-1.81 222.85-0.46 221.95 0.88 220.19 0.88L220.19 0.88Q219.11 0.88 218.45 0.05 217.79-0.78 217.4-2.1 217.01-3.42 216.84-5.03 216.67-6.64 216.65-8.18 216.62-9.72 216.65-10.99 216.67-12.26 216.67-12.89L216.67-12.89Q216.67-13.87 216.74-16.11 216.82-18.36 217.06-21.12 217.31-23.88 217.7-26.81 218.09-29.74 218.72-32.15 219.36-34.57 220.26-36.08 221.16-37.6 222.38-37.55L222.38-37.55Q223.17-37.5 223.73-36.87 224.29-36.23 224.66-35.23 225.02-34.23 225.27-33.06 225.51-31.88 225.63-30.74 225.75-29.59 225.78-28.61 225.8-27.64 225.8-27.1L225.8-27.1Q225.8-25.83 225.75-24.56 225.7-23.29 225.61-22.02L225.61-22.02Q226.73-23.54 228.61-24.51 230.49-25.49 232.39-25.49L232.39-25.49Q234.84-25.49 236.08-24.15 237.33-22.8 237.86-20.83 238.4-18.85 238.45-16.63 238.5-14.4 238.5-12.65ZM253.34 1.76L253.34 1.76Q249.87 1.76 247.94 0.85 246.01-0.05 245.06-1.71 244.11-3.37 243.92-5.71 243.72-8.06 243.72-10.94L243.72-10.94Q243.72-13.23 243.87-15.55 244.01-17.87 244.31-20.51L244.31-20.51Q243.62-20.51 243.23-20.48 242.84-20.46 242.6-20.46L242.6-20.46Q241.03-20.46 239.89-21.14 238.74-21.83 238.74-23.24L238.74-23.24Q238.74-24.12 239.4-24.8 240.06-25.49 241.08-25.98 242.11-26.46 243.3-26.76 244.5-27.05 245.58-27.15L245.58-27.15Q245.58-28.52 245.77-30.18 245.97-31.84 246.48-33.28 246.99-34.72 247.87-35.69 248.75-36.67 250.12-36.67L250.12-36.67Q250.9-36.67 251.51-36.21 252.12-35.74 252.51-35.03 252.9-34.33 253.1-33.45 253.29-32.57 253.29-31.74L253.29-31.74Q253.29-30.76 253.14-29.74 253-28.71 252.61-27.2L252.61-27.2Q253.44-27.29 253.73-27.32 254.02-27.34 254.27-27.34L254.27-27.34Q255.1-27.34 256-27.2 256.9-27.05 257.66-26.71 258.42-26.37 258.91-25.81 259.39-25.24 259.39-24.46L259.39-24.46Q259.39-23.58 258.69-22.9 257.98-22.22 256.9-21.73 255.83-21.24 254.61-20.97 253.39-20.7 252.31-20.61L252.31-20.61Q252.02-18.6 251.9-16.92 251.78-15.23 251.63-13.53L251.63-13.53Q251.53-12.7 251.46-11.84 251.39-10.99 251.39-10.11L251.39-10.11Q251.39-9.47 251.43-8.62 251.48-7.76 251.78-6.98 252.07-6.2 252.7-5.64 253.34-5.08 254.46-5.08L254.46-5.08Q255.15-5.08 255.88-5.2 256.61-5.32 257.34-5.32L257.34-5.32Q258.61-5.32 259.17-4.44 259.74-3.56 259.74-2.2L259.74-2.2Q259.74-1.17 259.13-0.42 258.51 0.34 257.59 0.81 256.66 1.27 255.51 1.51 254.36 1.76 253.34 1.76ZM302.5-28.66L302.5-28.66Q302.5-25.73 302.11-22.88 301.72-20.02 301.19-17.24L301.19-17.24Q301.04-16.5 300.75-14.87 300.45-13.23 300.04-11.23 299.62-9.23 299.04-7.08 298.45-4.93 297.74-3.17 297.04-1.42 296.18-0.27 295.33 0.88 294.35 0.88L294.35 0.88Q293.37 0.88 292.47-0.1 291.57-1.07 290.81-2.56 290.05-4.05 289.42-5.91 288.78-7.76 288.32-9.5 287.86-11.23 287.54-12.67 287.22-14.11 287.07-14.84L287.07-14.84Q286.88-14.21 286.46-12.82 286.05-11.43 285.41-9.69 284.78-7.96 284-6.15 283.22-4.35 282.36-2.83 281.51-1.32 280.58-0.34 279.65 0.63 278.72 0.63L278.72 0.63Q277.5 0.63 276.58-0.44 275.65-1.51 275.01-3.2 274.38-4.88 273.94-6.96 273.5-9.03 273.26-11.06 273.01-13.09 272.87-14.84 272.72-16.6 272.67-17.63L272.67-17.63Q272.52-19.97 272.4-22.22 272.28-24.46 272.28-26.81L272.28-26.81Q272.28-27.64 272.33-29.08 272.38-30.52 272.69-31.91 273.01-33.3 273.67-34.35 274.33-35.4 275.6-35.5L275.6-35.5Q276.67-35.55 277.46-34.62 278.24-33.69 278.77-32.15 279.31-30.62 279.63-28.74 279.95-26.86 280.12-25.1 280.29-23.34 280.34-21.88 280.38-20.41 280.34-19.73L280.34-19.73 280.29-18.46Q280.43-19.09 280.8-20.46 281.17-21.83 281.7-23.56 282.24-25.29 282.85-27.12 283.46-28.96 284.14-30.47 284.83-31.98 285.51-32.98 286.2-33.98 286.83-34.03L286.83-34.03Q287.66-34.08 288.42-33.06 289.17-32.03 289.78-30.4 290.39-28.76 290.88-26.76 291.37-24.76 291.74-22.88 292.1-21 292.3-19.48 292.49-17.97 292.59-17.33L292.59-17.33Q292.64-18.12 292.84-19.8 293.03-21.48 293.37-23.56 293.72-25.63 294.23-27.81 294.74-29.98 295.42-31.79 296.11-33.59 296.99-34.74 297.87-35.89 298.94-35.89L298.94-35.89Q300.16-35.89 300.89-35.08 301.63-34.28 301.97-33.13 302.31-31.98 302.41-30.74 302.5-29.49 302.5-28.66ZM312.51-34.08L312.51-34.08Q312.51-33.4 312.15-32.86 311.78-32.32 311.19-31.91 310.61-31.49 309.92-31.27 309.24-31.05 308.65-31.05L308.65-31.05Q307.68-31.05 306.94-31.54 306.21-32.03 306.21-33.06L306.21-33.06Q306.21-33.79 306.58-34.35 306.94-34.91 307.48-35.28 308.02-35.64 308.7-35.84 309.39-36.04 310.02-36.04L310.02-36.04Q310.95-36.04 311.73-35.6 312.51-35.16 312.51-34.08ZM312.9-17.48L312.9-17.48Q312.9-16.8 312.9-16.04 312.9-15.28 312.85-14.6L312.85-14.6Q312.8-13.77 312.8-12.38 312.8-10.99 312.71-9.38 312.61-7.76 312.39-6.1 312.17-4.44 311.68-3.08 311.19-1.71 310.39-0.85 309.58 0 308.36 0.05L308.36 0.05Q307.43 0.1 306.8-0.68 306.16-1.46 305.75-2.71 305.33-3.96 305.14-5.49 304.94-7.03 304.85-8.47 304.75-9.91 304.75-11.13 304.75-12.35 304.75-12.94L304.75-12.94Q304.75-13.72 304.75-15.16 304.75-16.6 304.85-18.26 304.94-19.92 305.21-21.63 305.48-23.34 305.99-24.76 306.51-26.17 307.34-27.05 308.17-27.93 309.44-27.93L309.44-27.93Q310.75-27.93 311.44-26.61 312.12-25.29 312.46-23.54 312.8-21.78 312.85-20.04 312.9-18.31 312.9-17.48ZM327.74 1.76L327.74 1.76Q324.28 1.76 322.35 0.85 320.42-0.05 319.47-1.71 318.51-3.37 318.32-5.71 318.12-8.06 318.12-10.94L318.12-10.94Q318.12-13.23 318.27-15.55 318.42-17.87 318.71-20.51L318.71-20.51Q318.03-20.51 317.64-20.48 317.25-20.46 317-20.46L317-20.46Q315.44-20.46 314.29-21.14 313.14-21.83 313.14-23.24L313.14-23.24Q313.14-24.12 313.8-24.8 314.46-25.49 315.49-25.98 316.51-26.46 317.71-26.76 318.91-27.05 319.98-27.15L319.98-27.15Q319.98-28.52 320.17-30.18 320.37-31.84 320.88-33.28 321.4-34.72 322.27-35.69 323.15-36.67 324.52-36.67L324.52-36.67Q325.3-36.67 325.91-36.21 326.52-35.74 326.91-35.03 327.3-34.33 327.5-33.45 327.69-32.57 327.69-31.74L327.69-31.74Q327.69-30.76 327.55-29.74 327.4-28.71 327.01-27.2L327.01-27.2Q327.84-27.29 328.13-27.32 328.43-27.34 328.67-27.34L328.67-27.34Q329.5-27.34 330.4-27.2 331.31-27.05 332.06-26.71 332.82-26.37 333.31-25.81 333.8-25.24 333.8-24.46L333.8-24.46Q333.8-23.58 333.09-22.9 332.38-22.22 331.31-21.73 330.23-21.24 329.01-20.97 327.79-20.7 326.72-20.61L326.72-20.61Q326.42-18.6 326.3-16.92 326.18-15.23 326.03-13.53L326.03-13.53Q325.94-12.7 325.86-11.84 325.79-10.99 325.79-10.11L325.79-10.11Q325.79-9.47 325.84-8.62 325.89-7.76 326.18-6.98 326.47-6.2 327.11-5.64 327.74-5.08 328.87-5.08L328.87-5.08Q329.55-5.08 330.28-5.2 331.01-5.32 331.75-5.32L331.75-5.32Q333.02-5.32 333.58-4.44 334.14-3.56 334.14-2.2L334.14-2.2Q334.14-1.17 333.53-0.42 332.92 0.34 331.99 0.81 331.06 1.27 329.92 1.51 328.77 1.76 327.74 1.76ZM357.28-12.65L357.28-12.65Q357.28-11.82 357.26-10.18 357.23-8.54 357.11-6.76 356.99-4.98 356.79-3.39 356.6-1.81 356.31-1.07L356.31-1.07Q355.91-0.15 355.28 0.54 354.65 1.22 353.57 1.22L353.57 1.22Q351.91 1.22 351.18-0.1 350.45-1.42 350.2-3.37 349.96-5.32 350.01-7.62 350.06-9.91 349.96-11.87 349.86-13.82 349.42-15.14 348.98-16.46 347.81-16.46L347.81-16.46Q346.2-16.46 345.34-15.94 344.49-15.43 344.12-14.6 343.76-13.77 343.68-12.7 343.61-11.62 343.51-10.45L343.51-10.45Q343.41-9.33 343.37-7.42 343.32-5.52 342.93-3.66 342.54-1.81 341.63-0.46 340.73 0.88 338.97 0.88L338.97 0.88Q337.9 0.88 337.24 0.05 336.58-0.78 336.19-2.1 335.8-3.42 335.63-5.03 335.46-6.64 335.43-8.18 335.41-9.72 335.43-10.99 335.46-12.26 335.46-12.89L335.46-12.89Q335.46-13.87 335.53-16.11 335.6-18.36 335.85-21.12 336.09-23.88 336.48-26.81 336.87-29.74 337.51-32.15 338.14-34.57 339.04-36.08 339.95-37.6 341.17-37.55L341.17-37.55Q341.95-37.5 342.51-36.87 343.07-36.23 343.44-35.23 343.81-34.23 344.05-33.06 344.29-31.88 344.42-30.74 344.54-29.59 344.56-28.61 344.59-27.64 344.59-27.1L344.59-27.1Q344.59-25.83 344.54-24.56 344.49-23.29 344.39-22.02L344.39-22.02Q345.51-23.54 347.39-24.51 349.27-25.49 351.18-25.49L351.18-25.49Q353.62-25.49 354.86-24.15 356.11-22.8 356.65-20.83 357.18-18.85 357.23-16.63 357.28-14.4 357.28-12.65ZM388.48-34.28L388.48-34.28Q388.48-33.15 387.77-32.32 387.06-31.49 386.09-30.96L386.09-30.96Q385.21-30.42 384.28-29.81 383.35-29.2 382.57-28.44 381.79-27.69 381.3-26.76 380.81-25.83 380.81-24.66L380.81-24.66Q380.81-23.63 381.3-22.8 381.79-21.97 382.5-21.17 383.2-20.36 384.06-19.51 384.91-18.65 385.62-17.6 386.33-16.55 386.82-15.23 387.31-13.92 387.31-12.16L387.31-12.16Q387.31-10.94 386.79-9.4 386.28-7.86 385.4-6.3 384.52-4.74 383.33-3.27 382.13-1.81 380.79-0.66 379.44 0.49 377.98 1.2 376.52 1.9 375.15 1.9L375.15 1.9Q373.63 1.9 372.46 1.07 371.29 0.24 371.29-1.42L371.29-1.42Q371.29-2.54 371.83-3.49 372.36-4.44 373.15-5.32 373.93-6.2 374.88-7.03 375.83-7.86 376.61-8.69 377.39-9.52 377.93-10.42 378.47-11.33 378.47-12.35L378.47-12.35Q378.47-13.77 377.47-15.26 376.47-16.75 375.25-18.33 374.02-19.92 373.02-21.58 372.02-23.24 372.02-24.95L372.02-24.95Q372.02-27.05 373.15-29.37 374.27-31.69 376.03-33.62 377.78-35.55 379.98-36.82 382.18-38.09 384.33-38.09L384.33-38.09Q386.04-38.09 387.26-37.06 388.48-36.04 388.48-34.28ZM399.46 1.42L399.46 1.42Q396.97 1.42 395.12 0.1 393.26-1.22 391.99-3.27 390.72-5.32 390.09-7.84 389.45-10.35 389.45-12.79L389.45-12.79Q389.45-15.38 390.09-18.14 390.72-20.9 392.04-23.17 393.36-25.44 395.41-26.88 397.46-28.32 400.29-28.32L400.29-28.32Q403.03-28.32 404.95-26.83 406.88-25.34 408.06-23.12 409.23-20.9 409.72-18.26 410.2-15.63 410.06-13.28L410.06-13.28Q409.91-10.69 409.25-8.06 408.59-5.42 407.32-3.32 406.05-1.22 404.1 0.1 402.15 1.42 399.46 1.42ZM399.95-20.65L399.95-20.65Q399.22-20.65 398.66-19.87 398.09-19.09 397.73-17.97 397.36-16.85 397.17-15.6 396.97-14.36 396.97-13.43L396.97-13.43Q396.97-12.26 397.19-10.89 397.41-9.52 397.8-8.37 398.19-7.23 398.75-6.47 399.32-5.71 400.05-5.71L400.05-5.71Q400.83-5.71 401.39-6.45 401.95-7.18 402.29-8.3 402.64-9.42 402.78-10.77 402.93-12.11 402.93-13.28L402.93-13.28Q402.93-14.36 402.73-15.65 402.54-16.94 402.17-18.07 401.81-19.19 401.24-19.92 400.68-20.65 399.95-20.65ZM433-29.2L433-29.2Q433-28.27 432.83-27.42 432.66-26.56 432.22-25.93 431.78-25.29 431.05-24.93 430.32-24.56 429.24-24.56L429.24-24.56Q428.02-24.56 427.44-25.05 426.85-25.54 426.63-26.25 426.41-26.95 426.41-27.78 426.41-28.61 426.34-29.32 426.27-30.03 425.97-30.52 425.68-31.01 424.9-31.01L424.9-31.01Q424.17-31.01 423.7-29.88 423.24-28.76 422.95-27.29 422.65-25.83 422.55-24.44 422.46-23.05 422.46-22.56L422.46-22.56Q423.09-22.66 423.68-22.73 424.26-22.8 424.95-22.8L424.95-22.8Q425.63-22.8 426.36-22.66 427.1-22.51 427.73-22.19 428.37-21.88 428.76-21.31 429.15-20.75 429.15-19.92L429.15-19.92Q429.15-19.04 428.39-18.36 427.63-17.68 426.58-17.21 425.53-16.75 424.46-16.46 423.39-16.16 422.75-16.06L422.75-16.06Q422.9-12.7 422.9-9.28L422.9-9.28Q422.9-6.05 422.75-2.93L422.75-2.93Q422.65-1.42 421.7-0.44 420.75 0.54 419.23 0.54L419.23 0.54Q418.4 0.54 417.82 0.22 417.23-0.1 416.84-0.63 416.45-1.17 416.23-1.86 416.01-2.54 415.96-3.27L415.96-3.27Q415.72-6.2 415.57-9.16 415.43-12.11 415.47-15.09L415.47-15.09Q415.13-15.04 414.82-15.04 414.5-15.04 414.16-15.04L414.16-15.04Q413.57-15.04 412.74-15.19 411.91-15.33 411.15-15.7 410.4-16.06 409.86-16.6 409.32-17.14 409.32-17.97L409.32-17.97Q409.32-19.04 410.03-19.78 410.74-20.51 411.74-20.97 412.74-21.44 413.84-21.63 414.94-21.83 415.77-21.92L415.77-21.92 415.77-22.71Q415.77-25.1 416.21-27.83 416.65-30.57 417.77-32.91 418.89-35.25 420.85-36.79 422.8-38.33 425.83-38.33L425.83-38.33Q427.73-38.33 429.1-37.52 430.47-36.72 431.34-35.42 432.22-34.13 432.61-32.5 433-30.86 433-29.2ZM442.57 1.76L442.57 1.76Q439.11 1.76 437.18 0.85 435.25-0.05 434.3-1.71 433.34-3.37 433.15-5.71 432.95-8.06 432.95-10.94L432.95-10.94Q432.95-13.23 433.1-15.55 433.25-17.87 433.54-20.51L433.54-20.51Q432.86-20.51 432.46-20.48 432.07-20.46 431.83-20.46L431.83-20.46Q430.27-20.46 429.12-21.14 427.97-21.83 427.97-23.24L427.97-23.24Q427.97-24.12 428.63-24.8 429.29-25.49 430.32-25.98 431.34-26.46 432.54-26.76 433.73-27.05 434.81-27.15L434.81-27.15Q434.81-28.52 435-30.18 435.2-31.84 435.71-33.28 436.22-34.72 437.1-35.69 437.98-36.67 439.35-36.67L439.35-36.67Q440.13-36.67 440.74-36.21 441.35-35.74 441.74-35.03 442.13-34.33 442.33-33.45 442.52-32.57 442.52-31.74L442.52-31.74Q442.52-30.76 442.38-29.74 442.23-28.71 441.84-27.2L441.84-27.2Q442.67-27.29 442.96-27.32 443.26-27.34 443.5-27.34L443.5-27.34Q444.33-27.34 445.23-27.2 446.14-27.05 446.89-26.71 447.65-26.37 448.14-25.81 448.63-25.24 448.63-24.46L448.63-24.46Q448.63-23.58 447.92-22.9 447.21-22.22 446.14-21.73 445.06-21.24 443.84-20.97 442.62-20.7 441.55-20.61L441.55-20.61Q441.25-18.6 441.13-16.92 441.01-15.23 440.86-13.53L440.86-13.53Q440.77-12.7 440.69-11.84 440.62-10.99 440.62-10.11L440.62-10.11Q440.62-9.47 440.67-8.62 440.72-7.76 441.01-6.98 441.3-6.2 441.94-5.64 442.57-5.08 443.7-5.08L443.7-5.08Q444.38-5.08 445.11-5.2 445.84-5.32 446.58-5.32L446.58-5.32Q447.85-5.32 448.41-4.44 448.97-3.56 448.97-2.2L448.97-2.2Q448.97-1.17 448.36-0.42 447.75 0.34 446.82 0.81 445.89 1.27 444.74 1.51 443.6 1.76 442.57 1.76ZM474.26 0.63L474.26 0.63Q472.7 0.63 471.45-1.03 470.21-2.69 469.28-5 468.35-7.32 467.74-9.77 467.13-12.21 466.84-13.82L466.84-13.82Q466.45-12.84 465.79-11.43 465.13-10.01 464.27-8.45 463.42-6.88 462.44-5.3 461.47-3.71 460.42-2.44 459.37-1.17 458.32-0.39 457.27 0.39 456.29 0.39L456.29 0.39Q454.97 0.39 453.97-0.88 452.97-2.15 452.29-4.2 451.6-6.25 451.14-8.74 450.67-11.23 450.43-13.72 450.19-16.21 450.09-18.36 449.99-20.51 449.99-21.83L449.99-21.83Q449.99-23.05 450.11-24.17 450.24-25.29 450.6-26.17 450.97-27.05 451.68-27.56 452.38-28.08 453.56-28.08L453.56-28.08Q454.68-28.08 455.48-27.25 456.29-26.42 456.83-25.07 457.36-23.73 457.71-22.05 458.05-20.36 458.24-18.63 458.44-16.89 458.51-15.26 458.59-13.62 458.63-12.45L458.63-12.45Q458.93-13.48 459.46-14.97 460-16.46 460.64-18.14 461.27-19.82 462.03-21.48 462.78-23.14 463.54-24.46 464.3-25.78 465.03-26.61 465.76-27.44 466.45-27.44L466.45-27.44 466.5-27.44Q467.37-27.44 468.2-26.61 469.03-25.78 469.82-24.46 470.6-23.14 471.28-21.46 471.96-19.78 472.55-18.04 473.14-16.31 473.58-14.67 474.01-13.04 474.31-11.87L474.31-11.87Q474.36-13.28 474.45-15.06 474.55-16.85 474.82-18.65 475.09-20.46 475.55-22.17 476.02-23.88 476.7-25.22 477.38-26.56 478.38-27.37 479.39-28.17 480.7-28.17L480.7-28.17Q482.07-28.17 482.73-27.22 483.39-26.27 483.39-24.9L483.39-24.9Q483.39-23.44 483.02-21 482.66-18.55 482.02-15.7 481.39-12.84 480.53-9.94 479.68-7.03 478.65-4.69 477.63-2.34 476.51-0.85 475.38 0.63 474.26 0.63ZM506.82-6.88L506.82-6.88Q506.82-6.01 506.75-4.59 506.68-3.17 506.34-1.83 505.99-0.49 505.26 0.49 504.53 1.46 503.21 1.46L503.21 1.46Q501.4 1.46 500.43 0.29 499.45-0.88 499.5-2.64L499.5-2.64Q497.94-1.27 495.96-0.49 493.98 0.29 491.93 0.29L491.93 0.29Q490.52 0.29 489.25-0.39 487.98-1.07 487-2.15 486.02-3.22 485.44-4.57 484.85-5.91 484.85-7.23L484.85-7.23Q484.85-9.57 486.29-11.33 487.73-13.09 489.83-14.33 491.93-15.58 494.3-16.31 496.67-17.04 498.52-17.29L498.52-17.29Q498.52-17.53 498.55-17.72 498.57-17.92 498.57-18.16L498.57-18.16Q498.57-19.68 497.74-20.61 496.91-21.53 495.4-21.53L495.4-21.53Q494.18-21.53 493.3-21.12 492.42-20.7 491.64-20.19 490.86-19.68 490.08-19.26 489.3-18.85 488.32-18.85L488.32-18.85Q487.24-18.85 486.49-19.53 485.73-20.21 485.73-21.29L485.73-21.29Q485.73-22.9 486.68-24.22 487.64-25.54 489.08-26.44 490.52-27.34 492.2-27.86 493.89-28.37 495.3-28.37L495.3-28.37Q496.62-28.37 497.94-28.05 499.26-27.73 500.43-27.08 501.6-26.42 502.55-25.46 503.5-24.51 504.09-23.24L504.09-23.24Q504.97-21.44 505.51-19.41 506.04-17.38 506.34-15.26 506.63-13.13 506.73-11.01 506.82-8.89 506.82-6.88ZM499.01-8.45L499.01-8.45 498.87-11.77Q498.77-11.77 498.67-11.79 498.57-11.82 498.48-11.82L498.48-11.82Q497.84-11.82 496.89-11.5 495.94-11.18 495.06-10.62 494.18-10.06 493.57-9.38 492.96-8.69 492.96-7.96L492.96-7.96Q492.96-7.28 493.45-7.03 493.93-6.79 494.57-6.79L494.57-6.79Q495.64-6.79 496.86-7.35 498.08-7.91 499.01-8.45ZM526.7-18.26L526.7-18.26Q526.01-18.21 525.52-18.38 525.04-18.55 524.55-18.75L524.55-18.75Q524.11-18.95 523.67-19.12 523.23-19.29 522.69-19.24L522.69-19.24Q521.71-19.19 520.96-18.7 520.2-18.21 519.59-17.48 518.98-16.75 518.54-15.84 518.1-14.94 517.86-14.06L517.86-14.06Q517.71-13.48 517.64-12.28 517.56-11.08 517.56-9.72L517.56-9.72Q517.52-8.3 517.52-7.03 517.52-5.76 517.42-5.03L517.42-5.03Q517.37-4.25 517.17-3.2 516.98-2.15 516.56-1.22 516.15-0.29 515.46 0.34 514.78 0.98 513.71 0.98L513.71 0.98Q512.88 0.98 512.27 0.49 511.66 0 511.24-0.81 510.83-1.61 510.56-2.69 510.29-3.76 510.14-4.88L510.14-4.88Q510-6.05 509.92-7.23 509.85-8.4 509.83-9.45 509.8-10.5 509.83-11.38 509.85-12.26 509.85-12.79L509.85-12.79Q509.8-14.5 509.68-16.24 509.56-17.97 509.56-19.68L509.56-19.68Q509.56-20.75 509.65-22.07 509.75-23.39 510.19-24.54 510.63-25.68 511.49-26.46 512.34-27.25 513.85-27.25L513.85-27.25Q514.68-27.25 515.27-26.71 515.86-26.17 516.22-25.39 516.59-24.61 516.78-23.73 516.98-22.85 517.03-22.12L517.03-22.12Q518.2-24.02 519.66-25.22 521.13-26.42 523.47-26.51L523.47-26.51Q524.64-26.56 525.79-26.29 526.94-26.03 527.89-25.42 528.84-24.8 529.45-23.83 530.06-22.85 530.11-21.53L530.11-21.53Q530.21-19.97 529.19-19.14 528.16-18.31 526.7-18.26ZM551.3-8.69L551.3-8.69Q551.3-7.03 550.25-5.44 549.2-3.86 547.62-2.61 546.03-1.37 544.22-0.61 542.42 0.15 540.9 0.15L540.9 0.15Q538.31 0.15 536.29-1.15 534.26-2.44 532.89-4.44 531.53-6.45 530.82-8.86 530.11-11.28 530.11-13.57L530.11-13.57Q530.11-16.02 530.79-18.8 531.48-21.58 532.87-23.93 534.26-26.27 536.39-27.83 538.51-29.39 541.44-29.39L541.44-29.39Q543.1-29.39 544.61-28.83 546.13-28.27 547.25-27.25 548.37-26.22 549.06-24.8 549.74-23.39 549.74-21.63L549.74-21.63Q549.74-19.34 548.76-17.33 547.79-15.33 546.18-13.87 544.56-12.4 542.46-11.5 540.36-10.6 538.17-10.5L538.17-10.5Q538.36-9.08 539.31-8.45 540.27-7.81 541.59-7.81L541.59-7.81Q542.56-7.81 543.49-8.3 544.42-8.79 545.3-9.4 546.18-10.01 547.03-10.5 547.88-10.99 548.76-10.99L548.76-10.99Q549.74-10.99 550.52-10.35 551.3-9.72 551.3-8.69ZM543.39-20.65L543.39-20.65Q543.39-21.29 543.05-21.97 542.71-22.66 541.98-22.66L541.98-22.66Q540.9-22.66 540.17-22.09 539.44-21.53 538.95-20.68 538.46-19.82 538.19-18.85 537.92-17.87 537.87-17.04L537.87-17.04Q538.56-17.19 539.51-17.43 540.46-17.68 541.32-18.09 542.17-18.51 542.78-19.14 543.39-19.78 543.39-20.65ZM560.33-2.34L560.33-2.34Q560.33-1.71 560.04-1.2 559.75-0.68 559.28-0.34 558.82 0 558.26 0.2 557.7 0.39 557.11 0.39L557.11 0.39Q556.38 0.39 555.52 0.12 554.67-0.15 553.96-0.63 553.25-1.12 552.76-1.78 552.28-2.44 552.28-3.27L552.28-3.27Q552.28-4.59 553.4-5.25 554.52-5.91 555.69-5.91L555.69-5.91Q556.43-5.91 557.23-5.66 558.04-5.42 558.75-4.96 559.45-4.49 559.89-3.83 560.33-3.17 560.33-2.34Z" opacity="1" transform="matrix(1,0,0,1,0,0)" fill="#0a1627" class="undefined-text-1" data-fill-palette-color="quaternary" id="text-1"></path></svg></g></svg></g></svg></g></svg></g><g></g></svg></g></svg></g></svg></g></svg></g><defs></defs></svg><rect width="320" height="360" fill="none" stroke="none" visibility="hidden"></rect></g></svg></g></svg>